<mxfile host="app.diagrams.net" modified="2023-12-03T20:20:33.067Z" agent="Mozilla/5.0 (Windows NT 10.0; Win64; x64) AppleWebKit/537.36 (KHTML, like Gecko) Chrome/111.0.0.0 Safari/537.36" version="22.1.5" etag="YCFy43ULhvm4-SJ7gXgs" type="github">
  <diagram name="Page-1" id="JnRlan0nJBNWdaR94xrx">
    <mxGraphModel>
      <root>
        <mxCell id="0" />
        <mxCell id="1" parent="0" />
      </root>
    </mxGraphModel>
  </diagram>
</mxfile>
